<?xml version="1.0"?>
<svg xmlns="http://www.w3.org/2000/svg" xmlns:xlink="http://www.w3.org/1999/xlink" xmlns:svgjs="http://svgjs.com/svgjs" version="1.1" width="512" height="512" x="0" y="0" viewBox="0 0 316.459 316.459" style="enable-background:new 0 0 512 512" xml:space="preserve" class=""><g>
<g xmlns="http://www.w3.org/2000/svg">
	<g>
		<path d="M303.277,193.53h-0.04c-15.262-15.333-39.306-17.555-57.12-5.28l-117.6-117.56c13.957-20.483,8.667-48.403-11.817-62.36    C96.217-5.628,68.298-0.337,54.34,20.146c-5.244,7.696-7.964,16.833-7.783,26.143c-12.219-0.355-24.043,4.349-32.68,13    c-17.922,17.122-18.57,45.531-1.448,63.453c15.446,16.168,40.438,18.499,58.608,5.467l117.56,117.56    c-13.957,20.483-8.667,48.403,11.817,62.36c20.483,13.957,48.403,8.667,62.36-11.817c5.244-7.696,7.964-16.833,7.783-26.143    c24.78,0.564,45.326-19.066,45.89-43.847C316.727,214.051,311.967,202.2,303.277,193.53z" fill="#fdb357" data-original="#000000" style="" class=""/>
	</g>
</g>
<g xmlns="http://www.w3.org/2000/svg">
</g>
<g xmlns="http://www.w3.org/2000/svg">
</g>
<g xmlns="http://www.w3.org/2000/svg">
</g>
<g xmlns="http://www.w3.org/2000/svg">
</g>
<g xmlns="http://www.w3.org/2000/svg">
</g>
<g xmlns="http://www.w3.org/2000/svg">
</g>
<g xmlns="http://www.w3.org/2000/svg">
</g>
<g xmlns="http://www.w3.org/2000/svg">
</g>
<g xmlns="http://www.w3.org/2000/svg">
</g>
<g xmlns="http://www.w3.org/2000/svg">
</g>
<g xmlns="http://www.w3.org/2000/svg">
</g>
<g xmlns="http://www.w3.org/2000/svg">
</g>
<g xmlns="http://www.w3.org/2000/svg">
</g>
<g xmlns="http://www.w3.org/2000/svg">
</g>
<g xmlns="http://www.w3.org/2000/svg">
</g>
</g></svg>
